<?xml version="1.0" encoding="UTF-8"?>
<svg width="14px" height="20px" viewBox="0 0 14 20" version="1.1" xmlns="http://www.w3.org/2000/svg" xmlns:xlink="http://www.w3.org/1999/xlink">
    <!-- Generator: sketchtool 56.2 (101010) - https://sketch.com -->
    <title>EED1BEEF-A376-45E6-986C-739BE1EDA573</title>
    <desc>Created with sketchtool.</desc>
    <defs>
        <path d="M8.16666667,7 L8.75,8 L15.25,8 L15.8333333,7 L8.16666667,7 Z M7,5 L17,5 L17,4 L7,4 L7,5 Z M16,10 L8,10 L5,5 L5,2 L19,2 L19,5 L16,10 Z M16,11 L16,22 L8,22 L8,11 L16,11 Z M10,13 L10,20 L14,20 L14,13 L10,13 Z M12,14 C12.5522847,14 13,14.4477153 13,15 C13,15.5522847 12.5522847,16 12,16 C11.4477153,16 11,15.5522847 11,15 C11,14.4477153 11.4477153,14 12,14 Z" id="path-1"></path>
    </defs>
    <g id="App" stroke="none" stroke-width="1" fill="none" fill-rule="evenodd">
        <g id="303-1_station-id-scanning" transform="translate(-257.000000, -534.000000)">
            <g id="Turn-On" transform="translate(235.000000, 520.000000)">
                <g id="fab" transform="translate(17.000000, 12.000000)">
                    <mask id="mask-2" fill="white">
                        <use xlink:href="#path-1"></use>
                    </mask>
                    <use id="Shape" fill="#FFFFFF" xlink:href="#path-1"></use>
                </g>
            </g>
        </g>
    </g>
</svg>