<?xml version="1.0" encoding="UTF-8"?>
<svg width="20px" height="20px" viewBox="0 0 20 20" version="1.1" xmlns="http://www.w3.org/2000/svg" xmlns:xlink="http://www.w3.org/1999/xlink">
    <!-- Generator: sketchtool 57.1 (101010) - https://sketch.com -->
    <title>648AE0B1-37AC-4E97-BA25-8FD95FC38773</title>
    <desc>Created with sketchtool.</desc>
    <g id="MVP" stroke="none" stroke-width="1" fill="none" fill-rule="evenodd">
        <g id="303-2_station-id-scanning-manual-empty" transform="translate(-102.000000, -134.000000)" fill="#FFFFFF">
            <g id="Station-ID" transform="translate(82.000000, 120.000000)">
                <g id="fab-Atoms-/-ðŸ -/-qr" transform="translate(18.000000, 12.000000)">
                    <path d="M9,15 L9,22 L2,22 L2,15 L9,15 Z M20,16 L17,16 L17,20 L20,20 L20,16 Z M7,17 L4,17 L4,20 L7,20 L7,17 Z M13,11 L13,16 L11,16 L11,13 L8,13 L8,11 L13,11 Z M22,11 L22,14 L20,14 L20,11 L22,11 Z M17,11 L17,14 L15,14 L15,11 L17,11 Z M6,11 L6,13 L2,13 L2,11 L6,11 Z M9,2 L9,9 L2,9 L2,2 L9,2 Z M22,2 L22,9 L15,9 L15,2 L22,2 Z M13,3 L13,9 L11,9 L11,3 L13,3 Z M7,4 L4,4 L4,7 L7,7 L7,4 Z M20,4 L17,4 L17,7 L20,7 L20,4 Z M20,16 L22,16 L22,20 L20,20 L20,22 L15,22 L15,20 L13,20 L13,22 L11,22 L11,18 L15,18 L15,16 L17,16 L17,14 L20,14 L20,16 Z" id="Shape"></path>
                </g>
            </g>
        </g>
    </g>
</svg>